<svg id="SvgjsSvg1000" xmlns="http://www.w3.org/2000/svg" version="1.1" xmlns:xlink="http://www.w3.org/1999/xlink" xmlns:svgjs="http://svgjs.com/svgjs" width="8" height="14" viewBox="0 0 8 14"><title>Shape 45</title><desc>Created with Avocode.</desc><defs id="SvgjsDefs1001"></defs><path id="SvgjsPath1007" d="M935.349 2849.76L940.5880000000001 2855L935.2800000000001 2860.31V2860.31C935.1070000000001 2860.49 935.0000000000001 2860.73 935.0000000000001 2861C935.0000000000001 2861.55 935.4480000000001 2862 936.0000000000001 2862C936.2700000000001 2862 936.5140000000001 2861.89 936.6940000000001 2861.72V2861.72L942.6940000000001 2855.72V2855.72C942.883 2855.54 943.0000000000001 2855.2799999999997 943.0000000000001 2855V2855V2855C943.0000000000001 2854.71 942.8830000000002 2854.46 942.6940000000001 2854.28V2854.28L936.6940000000001 2848.28H936.6920000000001C936.5120000000002 2848.11 936.2690000000001 2848 936.0000000000001 2848C935.4480000000001 2848 935.0000000000001 2848.45 935.0000000000001 2849C935.0000000000001 2849.3 935.1350000000001 2849.57 935.3490000000002 2849.76Z " fill="#28c8c6" fill-opacity="1" transform="matrix(1,0,0,1,-935,-2848)"></path></svg>