<svg id="SvgjsSvg1008" xmlns="http://www.w3.org/2000/svg" version="1.1" xmlns:xlink="http://www.w3.org/1999/xlink" xmlns:svgjs="http://svgjs.com/svgjs" width="21" height="22" viewBox="0 0 21 22"><title>Shape 26</title><desc>Created with Avocode.</desc><defs id="SvgjsDefs1009"></defs><path id="SvgjsPath1010" d="M458.5 634.158C452.701 634.158 448 629.441 448 623.621C448 617.802 452.701 613.084 458.5 613.084C464.299 613.084 469 617.8019999999999 469 623.621C469 629.441 464.299 634.158 458.5 634.158ZM458.5 615.06C453.788 615.06 449.969 618.8929999999999 449.969 623.621C449.969 628.3489999999999 453.788 632.182 458.5 632.182C463.212 632.182 467.031 628.349 467.031 623.621C467.031 618.893 463.212 615.06 458.5 615.06ZM462.182 625.267C462.339 625.0930000000001 462.437 624.863 462.437 624.609C462.437 624.063 461.997 623.621 461.45300000000003 623.621C461.163 623.621 460.90400000000005 623.75 460.72400000000005 623.951L460.72100000000006 623.948L459.48400000000004 625.327V619.341C459.48400000000004 618.795 459.04400000000004 618.353 458.50000000000006 618.353C457.9560000000001 618.353 457.5160000000001 618.795 457.5160000000001 619.341V625.327L456.27900000000005 623.948L456.27600000000007 623.951C456.09600000000006 623.75 455.83700000000005 623.621 455.5470000000001 623.621C455.0030000000001 623.621 454.5630000000001 624.063 454.5630000000001 624.609C454.5630000000001 624.863 454.6610000000001 625.0930000000001 454.8180000000001 625.267L454.8150000000001 625.2700000000001L457.7680000000001 628.5630000000001L457.7710000000001 628.5600000000001C457.9510000000001 628.7610000000001 458.2100000000001 628.889 458.50000000000006 628.889C458.7900000000001 628.889 459.04900000000004 628.761 459.22900000000004 628.5600000000001L459.232 628.5630000000001L462.185 625.2700000000001Z " fill="#28c8c6" fill-opacity="1" transform="matrix(1,0,0,1,-448,-613)"></path></svg>