<svg id="SvgjsSvg1000" xmlns="http://www.w3.org/2000/svg" version="1.1" xmlns:xlink="http://www.w3.org/1999/xlink" xmlns:svgjs="http://svgjs.com/svgjs" width="16" height="17" viewBox="0 0 16 17"><title>Shape 39</title><desc>Created with Avocode.</desc><defs id="SvgjsDefs1001"></defs><path id="SvgjsPath1007" d="M1353 104C1353 99.5888 1356.59 95.9999 1361 95.9999C1365.41 95.9999 1369 99.58879999999999 1369 104C1369 108.411 1365.41 112 1361 112C1356.59 112 1353 108.411 1353 104ZM1367 104C1367 100.691 1364.31 98.0001 1361 98.0001C1357.69 98.0001 1355 100.691 1355 104C1355 107.309 1357.69 110 1361 110C1364.31 110 1367 107.309 1367 104ZM1361 108V105H1358V103H1361V100L1365 104Z " fill="#ffffff" fill-opacity="1" transform="matrix(1,0,0,1,-1353,-95)"></path></svg>