<svg id="SvgjsSvg1011" xmlns="http://www.w3.org/2000/svg" version="1.1" xmlns:xlink="http://www.w3.org/1999/xlink" xmlns:svgjs="http://svgjs.com/svgjs" width="50" height="40" viewBox="0 0 50 40"><title>Shape 43</title><desc>Created with Avocode.</desc><defs id="SvgjsDefs1012"></defs><path id="SvgjsPath1013" d="M371.79 1826.81H371.79400000000004L364.76200000000006 1842.5C364.4150000000001 1843.27 363.6650000000001 1843.82 362.78100000000006 1843.88L342.53200000000004 1845.23L343.70200000000006 1848.59H365.75000000000006C368.33900000000006 1848.59 370.43800000000005 1850.6999999999998 370.43800000000005 1853.29C370.43800000000005 1855.8899999999999 368.33900000000006 1858 365.75000000000006 1858C363.16100000000006 1858 361.06300000000005 1855.89 361.06300000000005 1853.29H339.18800000000005C339.18800000000005 1855.8899999999999 337.08900000000006 1858 334.50000000000006 1858C331.91100000000006 1858 329.81200000000007 1855.89 329.81200000000007 1853.29C329.81200000000007 1850.7 331.91100000000006 1848.59 334.50000000000006 1848.59H338.73600000000005L329.71200000000005 1822.7099999999998H324.34400000000005C323.04900000000004 1822.7099999999998 322.00000000000006 1821.6499999999999 322.00000000000006 1820.35C322.00000000000006 1819.05 323.04900000000004 1818 324.34400000000005 1818H331.37500000000006C332.3980000000001 1818 333.25800000000004 1818.66 333.57800000000003 1819.58H333.58700000000005L334.95200000000006 1823.49H369.65600000000006C370.9510000000001 1823.49 372.00000000000006 1824.54 372.00000000000006 1825.84C372.00000000000006 1826.1899999999998 371.9220000000001 1826.51 371.7900000000001 1826.81ZM336.592 1828.2L340.925 1840.6200000000001L361.065 1839.2800000000002L366.031 1828.2000000000003Z " fill="#ffffff" fill-opacity="1" transform="matrix(1,0,0,1,-322,-1818)"></path></svg>