<svg id="SvgjsSvg1008" xmlns="http://www.w3.org/2000/svg" version="1.1" xmlns:xlink="http://www.w3.org/1999/xlink" xmlns:svgjs="http://svgjs.com/svgjs" width="33" height="33" viewBox="0 0 33 33"><title>Shape 38</title><desc>Created with Avocode.</desc><defs id="SvgjsDefs1009"></defs><path id="SvgjsPath1010" d="M799.5 936C790.387 936 783 928.613 783 919.5C783 910.387 790.387 903 799.5 903C808.613 903 816 910.387 816 919.5C816 928.613 808.613 936 799.5 936ZM799.5 906.094C792.096 906.094 786.094 912.096 786.094 919.5C786.094 926.904 792.096 932.906 799.5 932.906C806.904 932.906 812.906 926.904 812.906 919.5C812.906 912.096 806.904 906.094 799.5 906.094ZM805.286 922.078C805.5329999999999 921.804 805.6869999999999 921.4449999999999 805.6869999999999 921.047C805.6869999999999 920.193 804.9949999999999 919.5 804.1409999999998 919.5C803.6839999999999 919.5 803.2779999999998 919.702 802.9949999999999 920.016L802.9909999999999 920.012L801.0469999999999 922.1719999999999V912.7969999999999C801.0469999999999 911.9429999999999 800.3539999999999 911.2499999999999 799.4999999999999 911.2499999999999C798.6459999999998 911.2499999999999 797.9529999999999 911.9429999999999 797.9529999999999 912.7969999999999V922.1719999999999L796.0089999999999 920.012L796.0049999999999 920.016C795.7219999999999 919.702 795.3159999999999 919.5 794.8589999999999 919.5C794.0049999999999 919.5 793.3129999999999 920.193 793.3129999999999 921.047C793.3129999999999 921.445 793.4669999999999 921.804 793.7139999999998 922.078L793.7099999999998 922.082L798.3499999999998 927.2379999999999L798.3539999999998 927.2339999999999C798.6369999999998 927.549 799.0429999999998 927.7499999999999 799.4999999999998 927.7499999999999C799.9559999999998 927.7499999999999 800.3619999999997 927.5489999999999 800.6459999999997 927.2339999999999L800.6499999999997 927.2379999999999L805.2899999999997 922.082Z " fill="#96a5b4" fill-opacity="1" transform="matrix(1,0,0,1,-783,-903)"></path></svg>