<svg id="SvgjsSvg1000" xmlns="http://www.w3.org/2000/svg" version="1.1" xmlns:xlink="http://www.w3.org/1999/xlink" xmlns:svgjs="http://svgjs.com/svgjs" width="33" height="33" viewBox="0 0 33 33"><title>Shape 38</title><desc>Created with Avocode.</desc><defs id="SvgjsDefs1001"></defs><path id="SvgjsPath1007" d="M798.5 1476C789.387 1476 782 1468.61 782 1459.5C782 1450.39 789.387 1443 798.5 1443C807.613 1443 815 1450.39 815 1459.5C815 1468.61 807.613 1476 798.5 1476ZM798.5 1446.09C791.096 1446.09 785.094 1452.1 785.094 1459.5C785.094 1466.9 791.096 1472.91 798.5 1472.91C805.904 1472.91 811.906 1466.9 811.906 1459.5C811.906 1452.1 805.904 1446.09 798.5 1446.09ZM804.286 1462.08C804.5329999999999 1461.8 804.6869999999999 1461.4399999999998 804.6869999999999 1461.05C804.6869999999999 1460.19 803.9949999999999 1459.5 803.1409999999998 1459.5C802.6839999999999 1459.5 802.2779999999998 1459.7 801.9949999999999 1460.02L801.9909999999999 1460.01L800.0469999999999 1462.17V1452.8000000000002C800.0469999999999 1451.9400000000003 799.3539999999999 1451.2500000000002 798.4999999999999 1451.2500000000002C797.6459999999998 1451.2500000000002 796.9529999999999 1451.9400000000003 796.9529999999999 1452.8000000000002V1462.17L795.0089999999999 1460.01L795.0049999999999 1460.02C794.7219999999999 1459.7 794.3159999999999 1459.5 793.8589999999999 1459.5C793.0049999999999 1459.5 792.3129999999999 1460.19 792.3129999999999 1461.05C792.3129999999999 1461.44 792.4669999999999 1461.8 792.7139999999998 1462.08H792.7099999999998L797.3499999999998 1467.24L797.3539999999998 1467.23C797.6369999999998 1467.55 798.0439999999999 1467.75 798.4999999999998 1467.75C798.9559999999998 1467.75 799.3619999999997 1467.55 799.6459999999997 1467.23L799.6499999999997 1467.24L804.2899999999997 1462.08Z " fill="#ffffff" fill-opacity="1" transform="matrix(1,0,0,1,-782,-1443)"></path></svg>