<svg id="SvgjsSvg1023" xmlns="http://www.w3.org/2000/svg" version="1.1" xmlns:xlink="http://www.w3.org/1999/xlink" xmlns:svgjs="http://svgjs.com/svgjs" width="16" height="13" viewBox="0 0 16 13"><title>Shape 38</title><desc>Created with Avocode.</desc><defs id="SvgjsDefs1024"></defs><path id="SvgjsPath1025" d="M1225 4587.54C1224.41 4587.8 1223.78 4587.98 1223.11 4588.06C1223.79 4587.650000000001 1224.31 4587.01 1224.56 4586.240000000001C1223.9199999999998 4586.620000000001 1223.22 4586.89 1222.47 4587.040000000001C1221.8700000000001 4586.400000000001 1221.02 4586.000000000001 1220.08 4586.000000000001C1218.26 4586.000000000001 1216.79 4587.470000000001 1216.79 4589.280000000001C1216.79 4589.540000000001 1216.82 4589.790000000001 1216.8799999999999 4590.030000000001C1214.1499999999999 4589.89 1211.7299999999998 4588.590000000001 1210.11 4586.6C1209.83 4587.08 1209.6699999999998 4587.650000000001 1209.6699999999998 4588.25C1209.6699999999998 4589.39 1210.4199999999998 4590.39 1211.31 4590.98C1210.77 4590.959999999999 1210 4590.82 1210 4590.57C1210 4590.58 1210 4590.599999999999 1210 4590.61C1210 4592.2 1210.95 4593.53 1212.45 4593.83C1212.18 4593.91 1211.8 4593.95 1211.5 4593.95C1211.28 4593.95 1211.03 4593.92 1210.83 4593.889999999999C1211.25 4595.19 1212.4399999999998 4596.139999999999 1213.8799999999999 4596.169999999999C1212.76 4597.049999999999 1211.33 4597.569999999999 1209.79 4597.569999999999C1209.52 4597.569999999999 1209.26 4597.559999999999 1209 4597.529999999999C1210.45 4598.459999999999 1212.18 4598.999999999999 1214.03 4598.999999999999C1220.07 4598.999999999999 1223.37 4593.999999999999 1223.37 4589.659999999999C1223.37 4589.519999999999 1223.37 4589.379999999999 1223.36 4589.239999999999C1224 4588.769999999999 1224.56 4588.199999999999 1225 4587.539999999999Z " fill="#ffffff" fill-opacity="1" transform="matrix(1,0,0,1,-1209,-4586)"></path></svg>