<svg id="SvgjsSvg1017" xmlns="http://www.w3.org/2000/svg" version="1.1" xmlns:xlink="http://www.w3.org/1999/xlink" xmlns:svgjs="http://svgjs.com/svgjs" width="55" height="48" viewBox="0 0 55 48"><title>Shape 44</title><desc>Created with Avocode.</desc><defs id="SvgjsDefs1018"></defs><path id="SvgjsPath1019" d="M1274.42 1857H1224.5800000000002C1223.15 1857 1222.0000000000002 1855.85 1222.0000000000002 1854.43V1811.5700000000002C1222.0000000000002 1810.15 1223.1500000000003 1809.0000000000002 1224.5800000000002 1809.0000000000002H1274.42C1275.8500000000001 1809.0000000000002 1277 1810.1500000000003 1277 1811.5700000000002V1854.43C1277 1855.8500000000001 1275.85 1857 1274.42 1857ZM1227.16 1811.57C1225.73 1811.57 1224.5800000000002 1812.72 1224.5800000000002 1814.1399999999999C1224.5800000000002 1815.56 1225.7300000000002 1816.7099999999998 1227.16 1816.7099999999998C1228.5800000000002 1816.7099999999998 1229.73 1815.5599999999997 1229.73 1814.1399999999999C1229.73 1812.7199999999998 1228.58 1811.57 1227.16 1811.57ZM1234.89 1811.57C1233.47 1811.57 1232.3100000000002 1812.72 1232.3100000000002 1814.1399999999999C1232.3100000000002 1815.56 1233.4700000000003 1816.7099999999998 1234.89 1816.7099999999998C1236.3100000000002 1816.7099999999998 1237.47 1815.5599999999997 1237.47 1814.1399999999999C1237.47 1812.7199999999998 1236.31 1811.57 1234.89 1811.57ZM1242.63 1811.57C1241.2 1811.57 1240.0500000000002 1812.72 1240.0500000000002 1814.1399999999999C1240.0500000000002 1815.56 1241.2000000000003 1816.7099999999998 1242.63 1816.7099999999998C1244.0500000000002 1816.7099999999998 1245.2 1815.5599999999997 1245.2 1814.1399999999999C1245.2 1812.7199999999998 1244.05 1811.57 1242.63 1811.57ZM1274.42 1819.29H1224.5800000000002V1854.43H1274.42Z " fill="#ffffff" fill-opacity="1" transform="matrix(1,0,0,1,-1222,-1809)"></path></svg>